<?xml version="1.0" standalone="no"?>
<!DOCTYPE svg PUBLIC "-//W3C//DTD SVG 20010904//EN"
 "http://www.w3.org/TR/2001/REC-SVG-20010904/DTD/svg10.dtd">
<svg version="1.0" xmlns="http://www.w3.org/2000/svg"
 width="1024.000000pt" height="1024.000000pt" viewBox="0 0 1024.000000 1024.000000"
 preserveAspectRatio="xMidYMid meet">
<metadata>
Created by potrace 1.14, written by Peter Selinger 2001-2017
</metadata>
<g transform="translate(0.000000,1024.000000) scale(0.100000,-0.100000)"
fill="#000000" stroke="none">
<path d="M5000 7740 l0 -2500 -2500 0 -2500 0 0 -120 0 -120 2500 0 2500 0 0
-2500 0 -2500 120 0 120 0 0 2500 0 2500 2500 0 2500 0 0 120 0 120 -2500 0
-2500 0 0 2500 0 2500 -120 0 -120 0 0 -2500z"/>
<path d="M7435 8929 c-394 -79 -656 -362 -682 -736 l-6 -83 251 0 251 0 6 48
c25 192 96 302 227 354 63 25 192 24 262 -3 113 -42 186 -167 186 -319 0 -130
-60 -260 -203 -438 -41 -51 -266 -297 -501 -547 l-426 -455 0 -175 0 -175 860
0 860 0 0 205 0 205 -531 2 -532 3 283 298 c155 164 315 336 355 382 282 329
381 596 330 886 -38 220 -155 377 -350 470 -133 64 -214 81 -415 85 -96 1
-197 -2 -225 -7z"/>
<path d="M2385 8725 l-510 -183 -3 -206 c-1 -113 0 -206 4 -206 3 0 136 41
295 90 158 50 291 90 294 90 3 0 5 -430 5 -955 l0 -955 250 0 250 0 0 1255 0
1255 -37 -1 c-23 0 -247 -76 -548 -184z"/>
<path d="M2452 3688 c-301 -24 -558 -186 -664 -416 -28 -61 -41 -111 -53 -204
l-6 -48 250 0 251 0 0 28 c0 45 44 125 93 168 63 55 138 79 247 77 144 -1 248
-57 300 -159 22 -43 25 -62 25 -154 0 -92 -3 -112 -26 -160 -35 -74 -72 -116
-128 -144 -71 -36 -138 -46 -311 -46 l-160 0 0 -195 0 -195 178 0 c228 0 307
-20 392 -96 73 -66 105 -163 98 -295 -12 -220 -185 -346 -437 -317 -162 19
-301 148 -301 280 l0 28 -251 0 -252 0 7 -62 c11 -97 25 -146 67 -233 105
-220 324 -366 608 -406 52 -7 140 -10 230 -6 291 11 489 92 653 265 117 124
171 267 171 452 0 263 -112 450 -336 559 l-77 38 67 39 c158 90 282 264 303
426 13 89 0 212 -30 310 -40 128 -137 254 -259 335 -155 103 -397 152 -649
131z"/>
<path d="M7242 2844 l-523 -826 11 -131 c5 -72 10 -144 10 -159 l0 -28 515 0
515 0 0 -270 0 -270 250 0 250 0 0 270 0 270 145 0 145 0 0 205 0 205 -145 0
-145 0 0 780 0 780 -253 0 -252 0 -523 -826z m525 -731 c-2 -2 -124 -2 -270
-1 l-265 3 266 423 267 424 3 -423 c1 -232 1 -424 -1 -426z"/>
</g>
</svg>
